<svg width="8" height="8" viewBox="0 0 8 8" fill="none" xmlns="http://www.w3.org/2000/svg">
<path d="M7.68807 6.17897C8.10398 6.59451 8.10398 7.2667 7.68807 7.68101C7.48012 7.88878 7.21101 8 6.92966 8C6.66055 8 6.39144 7.90223 6.18349 7.68101L4.00612 5.519L1.82875 7.68101C1.6208 7.88878 1.35168 8 1.07034 8C0.801223 8 0.519878 7.88878 0.311927 7.68101C-0.103976 7.2667 -0.103976 6.59451 0.311927 6.16675L2.4893 4.00351L0.311927 1.82683C-0.103976 1.41252 -0.103976 0.728106 0.311927 0.312569C0.727829 -0.10419 1.40061 -0.10419 1.82875 0.312569L4.00612 2.4868L6.17125 0.312569C6.59939 -0.10419 7.27217 -0.10419 7.68807 0.312569C8.10398 0.728106 8.10398 1.41252 7.68807 1.82683L5.5107 4.00351L7.68807 6.17897Z" fill="black"/>
</svg>
